<?xml version="1.0" encoding="UTF-8"?>
<svg width="1200px" height="300px" viewBox="0 0 1200 300" version="1.1" xmlns="http://www.w3.org/2000/svg" xmlns:xlink="http://www.w3.org/1999/xlink">
    <title>Artboard</title>
    <defs>
        <linearGradient x1="50%" y1="99.9964392%" x2="50%" y2="3.19290738e-05%" id="linearGradient-1">
            <stop stop-color="#5146CD" offset="0%"></stop>
            <stop stop-color="#6061F6" offset="100%"></stop>
        </linearGradient>
        <path d="M164.474453,93.1620319 L164.474453,170.102251 C164.474453,171.646712 112.884899,131.771621 112.884899,131.771621 C112.010756,131.058221 110.799141,131.058221 109.92532,131.771621 C109.92532,131.771621 58.3357664,171.646712 58.3357664,170.102251 L58.3357664,93.16882 C58.3357664,92.349719 58.6945129,91.5781349 59.3049944,91.0845409 L110.166419,49.9513834 C111.040239,49.2447714 112.246697,49.2476806 113.117939,49.9581715 L163.513605,91.0842177 C164.118929,91.5784582 164.474453,92.3468098 164.474453,93.1620319 Z M141.720297,129.327488 L141.788321,99.4749429 C141.788961,99.123672 141.625643,98.7924183 141.347136,98.5802997 L111.127541,75.5768934 C110.725182,75.2704999 110.168168,75.2753428 109.770943,75.5888392 L80.6371397,98.5812682 C80.3685796,98.793064 80.2116788,99.1175376 80.2116788,99.4613828 L80.2116788,129.276799 C80.2116788,130.196302 81.25255,130.722886 81.9860369,130.17467 L109.785703,109.395442 C110.173944,109.105515 110.704005,109.100995 111.096738,109.384788 L139.960698,130.233431 C140.694827,130.763889 141.718372,130.237305 141.720297,129.327488 Z" id="path-2"></path>
        <filter x="-57.0%" y="-26.9%" width="197.0%" height="187.0%" filterUnits="objectBoundingBox" id="filter-3">
            <feMorphology radius="1" operator="erode" in="SourceAlpha" result="shadowSpreadOuter1"></feMorphology>
            <feOffset dx="-9" dy="19" in="shadowSpreadOuter1" result="shadowOffsetOuter1"></feOffset>
            <feGaussianBlur stdDeviation="15" in="shadowOffsetOuter1" result="shadowBlurOuter1"></feGaussianBlur>
            <feColorMatrix values="0 0 0 0 0.117647059   0 0 0 0 0.117647059   0 0 0 0 0.117647059  0 0 0 0.5 0" type="matrix" in="shadowBlurOuter1"></feColorMatrix>
        </filter>
        <linearGradient x1="50%" y1="99.9964392%" x2="50%" y2="3.19290738e-05%" id="linearGradient-4">
            <stop stop-color="#5146CD" offset="0%"></stop>
            <stop stop-color="#6061F6" offset="100%"></stop>
        </linearGradient>
    </defs>
    <g id="Artboard" stroke="none" stroke-width="1" fill="none" fill-rule="evenodd">
        <g id="IconText" transform="translate(138.000000, 28.000000)">
            <g id="Background">
                <path d="M11.3961669,0 C5.12839427,0 0,5.12839427 0,11.3961669 L0,210.603833 C0,216.871606 5.12839427,222 11.3961669,222 L210.603833,222 C216.871606,222 222,216.871606 222,210.603833 L222,11.3961669 C222,5.12839427 216.871606,0 210.603833,0 L11.3961669,0 Z" id="Path-1" fill="url(#linearGradient-1)" fill-rule="nonzero"></path>
                <g id="Purple">
                    <use fill="black" fill-opacity="1" filter="url(#filter-3)" xlink:href="#path-2"></use>
                    <use fill="#FFFFFF" fill-rule="evenodd" xlink:href="#path-2"></use>
                </g>
            </g>
            <path d="M330.252653,153.587721 L316.716483,194.363636 L285,194.363636 L342.747101,29 L379.430459,29 L437.258555,194.363636 L405.540826,194.363636 L391.924907,153.587721 L330.252653,153.587721 Z M360.492369,63.0454545 L338.452471,129.515152 L383.806084,129.515152 L361.766187,63.0454545 L360.492369,63.0454545 Z M487.43213,195.174242 L458.315589,195.174242 L458.315589,71.3038087 L486.547422,71.3038087 L486.547422,91.9484644 L487.835066,91.9484644 C490.086672,84.7444569 493.947521,79.2068865 499.417613,75.3357532 C504.940262,71.4654531 511.240837,69.530303 518.319339,69.530303 C519.927748,69.530303 521.72386,69.6107086 523.707675,69.7715198 C525.745717,69.879005 527.435047,70.0673124 528.775665,70.336442 L528.775665,97.191492 C527.541829,96.760718 525.584709,96.3841032 522.904305,96.0616477 C520.276459,95.6858661 517.729116,95.4979753 515.262277,95.4979753 C507.272789,95.4979753 500.62392,98.0247105 495.31567,103.078181 C490.059977,108.078325 487.43213,114.502857 487.43213,122.351776 L487.43213,195.174242 Z M568.71091,243 C564.457678,243 560.742278,242.623928 557.564711,241.871783 C554.387981,241.12047 551.964803,240.395781 550.295177,239.697718 L557.080913,216.344615 C563.488826,218.170064 568.846625,218.492055 573.154311,217.310588 C577.515612,216.129954 581.069327,212.13044 583.815456,205.312046 L586.723269,197.420764 L541.73384,71.1515152 L572.74968,71.1515152 L601.342761,164.565175 L602.63582,164.565175 L631.309324,71.1515152 L662.406844,71.1515152 L612.328113,210.949389 C608.881629,220.666536 603.577446,228.450904 596.415562,234.302492 C589.254517,240.100831 580.019633,243 568.71091,243 Z M731.738748,196.795455 C719.432347,196.795455 708.804318,194.184362 699.85466,188.962178 C690.958048,183.739994 684.112364,176.364358 679.317608,166.835269 C674.522853,157.30618 672.125475,146.05458 672.125475,133.080468 C672.125475,120.320784 674.522853,109.123 679.317608,99.4871143 C684.112364,89.7961622 690.851544,82.2590794 699.535148,76.875866 C708.271798,71.43842 718.500333,68.719697 730.220754,68.719697 C740.289326,68.719697 749.585847,70.9269646 758.110317,75.3415 C766.633958,79.7018027 773.453119,86.5117512 778.567801,95.7713455 C783.735528,104.977541 786.319392,116.848645 786.319392,131.384656 L786.319392,140.348057 L700.813197,140.348057 C700.97316,150.953454 703.876536,159.217254 709.523324,165.139457 C715.223986,171.061659 722.762568,174.02276 732.13907,174.02276 C738.371838,174.02276 743.752573,172.676956 748.281275,169.98535 C752.863022,167.23951 756.13937,163.255499 758.110317,158.033315 L785.119667,161.102046 C782.56274,171.869308 776.596026,180.509816 767.219523,187.023571 C757.896894,193.53816 746.069969,196.795455 731.738748,196.795455 Z M700.471483,121.409091 L757.973384,121.409091 C757.920517,112.948414 755.318866,105.9694 750.168431,100.472048 C745.071689,94.9755311 738.381906,92.2272727 730.099081,92.2272727 C721.497401,92.2272727 714.515195,95.1104175 709.152465,100.876707 C703.789734,106.642997 700.896074,113.487124 700.471483,121.409091 Z M864.878327,196.795455 C852.828543,196.795455 842.385897,194.130547 833.550389,188.800732 C824.714047,183.470917 817.859343,176.014349 812.986274,166.431027 C808.166527,156.795142 805.756654,145.597357 805.756654,132.837673 C805.756654,120.024591 808.166527,108.826806 812.986274,99.2443191 C817.859343,89.6075995 824.714047,82.1243322 833.550389,76.7945171 C842.385897,71.4113037 852.828543,68.719697 864.878327,68.719697 C876.927278,68.719697 887.369924,71.4113037 896.206265,76.7945171 C905.095928,82.1243322 911.950633,89.6075995 916.77038,99.2443191 C921.590127,108.826806 924,120.024591 924,132.837673 C924,145.597357 921.590127,156.795142 916.77038,166.431027 C911.950633,176.014349 905.095928,183.470917 896.206265,188.800732 C887.369924,194.130547 876.927278,196.795455 864.878327,196.795455 Z M865.040045,174.098485 C871.699107,174.098485 877.221513,172.303944 881.607262,168.714863 C886.046075,165.126612 889.348654,160.27961 891.514997,154.173856 C893.734403,148.01498 894.844106,141.186679 894.844106,133.688952 C894.844106,126.137273 893.734403,119.308557 891.514997,113.202803 C889.348654,107.043927 886.046075,102.143387 881.607262,98.5011839 C877.221513,94.8589805 871.699107,93.0378788 865.040045,93.0378788 C858.327077,93.0378788 852.723812,94.8589805 848.230251,98.5011839 C843.790595,102.143387 840.461064,107.043927 838.241657,113.202803 C836.022251,119.308557 834.912548,126.137273 834.912548,133.688952 C834.912548,141.186679 836.022251,148.01498 838.241657,154.173856 C840.461064,160.27961 843.790595,165.126612 848.230251,168.714863 C852.723812,172.303944 858.327077,174.098485 865.040045,174.098485 Z" id="Aryeo" fill="url(#linearGradient-4)" fill-rule="nonzero"></path>
        </g>
    </g>
</svg>